<svg width="450" height="450" viewBox="0 0 450 450" fill="none" xmlns="http://www.w3.org/2000/svg">
<rect width="450" height="450" rx="24" fill="#FDFDFC"/>
<g clip-path="url(#clip0_64_2)">
<mask id="mask0_64_2" style="mask-type:luminance" maskUnits="userSpaceOnUse" x="75" y="75" width="300" height="300">
<path d="M375 375V75H75V375H375Z" fill="white"/>
</mask>
<g mask="url(#mask0_64_2)">
<path d="M138.795 287.636V232.739C156.872 232.739 171.514 247.34 171.514 265.367V287.718C171.514 317.246 195.071 341.881 224.682 342.37C254.865 342.86 279.486 318.47 279.486 288.533C279.486 275.482 274.742 262.92 266.153 253.132L201.697 181.675C189.591 168.298 190.736 147.66 204.151 135.588L289.629 230.373C289.956 230.7 290.283 231.107 290.611 231.434L293.473 234.86C305.579 250.113 312.205 269.038 312.205 288.533C312.205 336.416 273.024 375.244 225.009 374.999C177.158 374.754 138.795 335.274 138.795 287.636Z" fill="#21201C"/>
<path d="M138.795 160.467C138.795 112.585 177.976 73.7569 225.991 74.0016C273.842 74.2464 312.205 113.727 312.205 161.446V216.343C294.128 216.343 279.486 201.742 279.486 183.715V161.283C279.486 131.754 255.929 107.12 226.318 106.63C196.135 106.141 171.514 130.53 171.514 160.467C171.514 173.518 176.258 186.08 184.847 195.869L249.303 267.325C261.409 280.703 260.264 301.34 246.849 313.413L157.526 214.385V214.141C145.42 198.887 138.795 180.044 138.795 160.467Z" fill="#21201C"/>
</g>
</g>
<defs>
<clipPath id="clip0_64_2">
<rect width="300" height="300" fill="white" transform="matrix(0 1 -1 0 375 75)"/>
</clipPath>
</defs>
</svg>
